<?xml version="1.0" encoding="utf-8"?>
<!-- Generator: Adobe Illustrator 26.0.2, SVG Export Plug-In . SVG Version: 6.00 Build 0)  -->
<svg version="1.1" id="Layer_1" xmlns="http://www.w3.org/2000/svg" xmlns:xlink="http://www.w3.org/1999/xlink" x="0px" y="0px"
	 viewBox="0 0 300 300" style="enable-background:new 0 0 300 300;" xml:space="preserve">
<style type="text/css">
	.st0{fill:#231F20;}
	.st1{fill:none;}
	.st2{fill:none;stroke:#231F20;stroke-width:5;stroke-miterlimit:10;}
</style>
<g>
	<g>
		<g>
			<g>
				<polygon class="st0" points="175.07,251.02 76.5,251.02 76.5,163.54 8,163.01 184.84,28.77 255.51,82.41 244.63,96.75 
					184.84,51.37 60.94,145.42 94.5,145.68 94.5,233.02 175.07,233.02 				"/>
			</g>
			<path class="st0" d="M263.01,110.89l-45.06-11.87c6.49-4.73,14.51-10.5,22.93-16.55c0.08-0.06,0.17-0.13,0.25-0.18
				c7.12-5.09,14.52-10.39,21.54-15.4v43.56L263.01,110.89z"/>
		</g>
		<path class="st1" d="M159.06,161.8c-0.08,0.06-0.17,0.13-0.25,0.18"/>
		<path class="st1" d="M159.06,161.8c-0.08,0.06-0.17,0.13-0.25,0.18"/>
		<path class="st1" d="M159.06,161.8c-0.08,0.06-0.17,0.13-0.25,0.18L159.06,161.8z"/>
		<g>
			<rect x="246.84" y="146.73" class="st2" width="15.24" height="15.24"/>
			<rect x="269.7" y="146.73" class="st2" width="15.24" height="15.24"/>
			<rect x="269.7" y="168.46" class="st2" width="15.24" height="15.24"/>
			<rect x="246.84" y="168.46" class="st2" width="15.24" height="15.24"/>
		</g>
	</g>
	<g>
		<path class="st0" d="M151.39,105.72v50.17h-15.75v-26.9c0-3.88-0.12-6.22-0.35-7c-0.23-0.79-0.88-1.38-1.93-1.78
			c-1.05-0.4-3.4-0.6-7.04-0.6h-1.56v-5.85c7.62-1.3,13.4-3.98,17.35-8.03H151.39z"/>
		<path class="st0" d="M191.46,147.33v8.55H156.8l0.01-7.16c10.26-13.35,16.37-21.6,18.3-24.78c1.94-3.17,2.9-5.64,2.9-7.42
			c0-1.36-0.29-2.38-0.88-3.05c-0.59-0.67-1.48-1.01-2.67-1.01s-2.09,0.37-2.67,1.12c-0.59,0.74-0.88,2.22-0.88,4.43v4.77H156.8
			v-1.83c0-2.81,0.18-5.03,0.55-6.65c0.37-1.62,1.26-3.22,2.69-4.79c1.43-1.57,3.29-2.76,5.57-3.56c2.29-0.81,5.03-1.21,8.23-1.21
			c6.26,0,11,1.23,14.21,3.7c3.21,2.47,4.82,5.59,4.82,9.37c0,2.87-0.91,5.91-2.71,9.11c-1.81,3.2-7.12,10-15.96,20.39H191.46z"/>
		<path class="st0" d="M213.57,104.75v4.59h-4.46v18.35h-7.51v-18.35h-4.44v-4.59H213.57z"/>
		<path class="st0" d="M232.54,104.75v22.95h-7.51v-9.64h-2.25v9.64h-7.51v-22.95h7.51v8.21h2.25v-8.21H232.54z"/>
		<path class="st0" d="M150.52,170.12h-6.88v-2.16c0-1.01-0.09-1.65-0.26-1.92c-0.18-0.28-0.47-0.41-0.88-0.41
			c-0.45,0-0.78,0.19-1.01,0.56c-0.23,0.37-0.34,0.93-0.34,1.69c0,0.97,0.13,1.7,0.39,2.19c0.25,0.49,0.94,1.08,2.09,1.78
			c3.3,2,5.38,3.64,6.24,4.92c0.86,1.28,1.29,3.35,1.29,6.2c0,2.07-0.24,3.6-0.71,4.58c-0.48,0.98-1.39,1.81-2.76,2.47
			c-1.36,0.66-2.95,1-4.75,1c-1.98,0-3.68-0.38-5.08-1.15c-1.4-0.77-2.32-1.74-2.75-2.93c-0.43-1.19-0.65-2.87-0.65-5.05v-1.91h6.89
			v3.54c0,1.09,0.1,1.79,0.29,2.1c0.19,0.31,0.54,0.47,1.03,0.47c0.49,0,0.86-0.2,1.1-0.59c0.24-0.4,0.36-0.98,0.36-1.76
			c0-1.71-0.23-2.83-0.69-3.36c-0.47-0.53-1.63-1.41-3.47-2.64c-1.84-1.25-3.06-2.15-3.66-2.71s-1.09-1.34-1.49-2.34
			c-0.39-0.99-0.59-2.26-0.59-3.81c0-2.23,0.28-3.86,0.84-4.89c0.56-1.03,1.46-1.84,2.7-2.42c1.24-0.58,2.75-0.87,4.51-0.87
			c1.93,0,3.57,0.32,4.92,0.95c1.36,0.64,2.25,1.43,2.7,2.4c0.44,0.97,0.66,2.6,0.66,4.92V170.12z"/>
		<path class="st0" d="M168.39,161.32v5.82h-4.4v23.28h-7.41v-23.28h-4.38v-5.82H168.39z"/>
		<path class="st0" d="M170.08,161.32h5.25c3.5,0,5.87,0.14,7.11,0.41c1.24,0.28,2.25,0.98,3.03,2.11c0.78,1.13,1.17,2.94,1.17,5.42
			c0,2.26-0.28,3.79-0.83,4.57c-0.55,0.78-1.64,1.25-3.26,1.4c1.47,0.37,2.45,0.87,2.96,1.49c0.5,0.62,0.82,1.2,0.94,1.72
			c0.12,0.52,0.19,1.96,0.19,4.31v7.68h-6.89v-9.67c0-1.56-0.12-2.52-0.36-2.89c-0.24-0.37-0.87-0.56-1.89-0.56v13.12h-7.41V161.32z
			 M177.49,166.3v6.47c0.83,0,1.42-0.12,1.75-0.35c0.33-0.23,0.5-0.99,0.5-2.27v-1.6c0-0.92-0.16-1.53-0.48-1.82
			C178.94,166.44,178.35,166.3,177.49,166.3z"/>
		<path class="st0" d="M189.5,161.32h12.36v5.82h-4.95v5.52h4.63v5.54h-4.63v6.4h5.44v5.82H189.5V161.32z"/>
		<path class="st0" d="M204.49,161.32h12.36v5.82h-4.95v5.52h4.63v5.54h-4.63v6.4h5.44v5.82h-12.86V161.32z"/>
		<path class="st0" d="M233.93,161.32v5.82h-4.4v23.28h-7.41v-23.28h-4.38v-5.82H233.93z"/>
		<path class="st0" d="M117.65,211.49h-6.26v-5.26c0-1.53-0.07-2.48-0.2-2.86c-0.13-0.38-0.43-0.57-0.89-0.57
			c-0.51,0-0.84,0.23-0.98,0.69c-0.14,0.46-0.21,1.46-0.21,2.99v14.06c0,1.47,0.07,2.43,0.21,2.88c0.14,0.45,0.45,0.67,0.94,0.67
			c0.47,0,0.77-0.22,0.91-0.67c0.14-0.45,0.22-1.51,0.22-3.17v-3.81h6.26v1.18c0,3.13-0.18,5.36-0.53,6.67
			c-0.35,1.31-1.13,2.46-2.33,3.45c-1.2,0.99-2.69,1.48-4.45,1.48c-1.83,0-3.34-0.42-4.53-1.25c-1.19-0.83-1.98-1.99-2.36-3.47
			c-0.39-1.48-0.58-3.7-0.58-6.67v-8.85c0-2.18,0.06-3.82,0.18-4.91c0.12-1.09,0.47-2.14,1.06-3.15s1.41-1.8,2.45-2.38
			c1.04-0.58,2.25-0.87,3.6-0.87c1.84,0,3.36,0.45,4.56,1.34c1.2,0.9,1.99,2.01,2.36,3.35c0.38,1.34,0.56,3.42,0.56,6.25V211.49z"/>
		<path class="st0" d="M134.19,216.03c0,3.04-0.06,5.2-0.17,6.46c-0.12,1.27-0.47,2.42-1.07,3.47c-0.6,1.05-1.41,1.85-2.43,2.41
			c-1.02,0.56-2.21,0.84-3.57,0.84c-1.29,0-2.44-0.27-3.47-0.8c-1.02-0.53-1.85-1.32-2.47-2.38c-0.62-1.06-0.99-2.21-1.11-3.46
			s-0.18-3.43-0.18-6.54v-5.18c0-3.04,0.06-5.2,0.17-6.46c0.11-1.27,0.47-2.42,1.07-3.47c0.6-1.05,1.41-1.85,2.43-2.41
			c1.02-0.56,2.21-0.84,3.57-0.84c1.29,0,2.44,0.27,3.47,0.79c1.02,0.53,1.85,1.33,2.47,2.38s1,2.21,1.12,3.46
			c0.12,1.25,0.18,3.43,0.18,6.54V216.03z M127.94,206.09c0-1.41-0.06-2.31-0.18-2.7c-0.12-0.39-0.38-0.59-0.77-0.59
			c-0.33,0-0.58,0.16-0.75,0.48c-0.17,0.32-0.26,1.26-0.26,2.81v14.14c0,1.76,0.06,2.84,0.17,3.25c0.11,0.41,0.38,0.62,0.79,0.62
			c0.43,0,0.7-0.24,0.82-0.71c0.12-0.47,0.18-1.6,0.18-3.38V206.09z"/>
		<path class="st0" d="M150.49,198.31v30.28h-5.48l-3.25-13.76v13.76h-5.23v-30.28h5.23l3.51,13.63v-13.63H150.49z"/>
		<path class="st0" d="M166.26,207.47h-5.81v-2.24c0-1.05-0.07-1.71-0.22-2c-0.15-0.29-0.4-0.43-0.74-0.43
			c-0.38,0-0.66,0.19-0.85,0.58c-0.19,0.39-0.29,0.97-0.29,1.76c0,1.01,0.11,1.77,0.33,2.28c0.21,0.51,0.8,1.13,1.77,1.85
			c2.79,2.08,4.54,3.79,5.26,5.12c0.72,1.33,1.08,3.48,1.08,6.45c0,2.16-0.2,3.75-0.6,4.77c-0.4,1.02-1.18,1.88-2.33,2.57
			c-1.15,0.69-2.49,1.04-4.01,1.04c-1.67,0-3.1-0.4-4.29-1.2c-1.18-0.8-1.96-1.81-2.33-3.05c-0.37-1.23-0.55-2.99-0.55-5.25v-1.98
			h5.81v3.68c0,1.13,0.08,1.86,0.25,2.19c0.16,0.32,0.45,0.49,0.87,0.49c0.42,0,0.72-0.21,0.93-0.62c0.2-0.41,0.3-1.02,0.3-1.83
			c0-1.78-0.19-2.95-0.58-3.5c-0.4-0.55-1.37-1.47-2.93-2.75c-1.55-1.3-2.59-2.24-3.09-2.82c-0.51-0.59-0.92-1.4-1.25-2.43
			c-0.33-1.04-0.5-2.36-0.5-3.96c0-2.32,0.24-4.01,0.71-5.09c0.47-1.07,1.23-1.91,2.28-2.52c1.05-0.6,2.32-0.91,3.8-0.91
			c1.62,0,3.01,0.33,4.15,0.99c1.14,0.66,1.9,1.49,2.27,2.5c0.37,1,0.56,2.71,0.56,5.11V207.47z"/>
		<path class="st0" d="M181.34,198.31v6.06h-3.71v24.22h-6.26v-24.22h-3.7v-6.06H181.34z"/>
		<path class="st0" d="M182.77,198.31h4.43c2.95,0,4.95,0.14,6,0.43c1.05,0.29,1.9,1.02,2.56,2.2c0.66,1.18,0.99,3.06,0.99,5.64
			c0,2.36-0.23,3.94-0.7,4.75c-0.47,0.81-1.38,1.3-2.75,1.46c1.24,0.39,2.07,0.9,2.5,1.55c0.43,0.65,0.69,1.24,0.79,1.79
			c0.1,0.54,0.16,2.04,0.16,4.48v7.98h-5.81v-10.06c0-1.62-0.1-2.62-0.3-3.01c-0.2-0.39-0.74-0.58-1.6-0.58v13.65h-6.26V198.31z
			 M189.02,203.49v6.73c0.7,0,1.2-0.12,1.48-0.36c0.28-0.24,0.42-1.03,0.42-2.37v-1.66c0-0.96-0.14-1.59-0.41-1.89
			C190.24,203.64,189.74,203.49,189.02,203.49z"/>
		<path class="st0" d="M213.38,198.31v20.23c0,2.29-0.06,3.91-0.18,4.83c-0.12,0.93-0.47,1.88-1.05,2.86
			c-0.59,0.98-1.36,1.72-2.31,2.22c-0.96,0.51-2.08,0.76-3.38,0.76c-1.44,0-2.7-0.3-3.8-0.9c-1.1-0.6-1.92-1.38-2.47-2.34
			c-0.54-0.96-0.87-1.97-0.97-3.04c-0.1-1.07-0.15-3.31-0.15-6.72v-17.91h6.26v22.7c0,1.32,0.06,2.17,0.17,2.53
			c0.11,0.37,0.34,0.55,0.69,0.55c0.4,0,0.65-0.2,0.77-0.61c0.11-0.4,0.17-1.36,0.17-2.87v-22.31H213.38z"/>
		<path class="st0" d="M230.4,211.49h-6.26v-5.26c0-1.53-0.07-2.48-0.2-2.86c-0.13-0.38-0.43-0.57-0.89-0.57
			c-0.51,0-0.84,0.23-0.98,0.69c-0.14,0.46-0.21,1.46-0.21,2.99v14.06c0,1.47,0.07,2.43,0.21,2.88c0.14,0.45,0.45,0.67,0.94,0.67
			c0.47,0,0.77-0.22,0.91-0.67c0.14-0.45,0.22-1.51,0.22-3.17v-3.81h6.26v1.18c0,3.13-0.18,5.36-0.53,6.67
			c-0.35,1.31-1.13,2.46-2.33,3.45c-1.2,0.99-2.69,1.48-4.45,1.48c-1.83,0-3.34-0.42-4.53-1.25c-1.19-0.83-1.98-1.99-2.36-3.47
			c-0.39-1.48-0.58-3.7-0.58-6.67v-8.85c0-2.18,0.06-3.82,0.18-4.91c0.12-1.09,0.47-2.14,1.06-3.15s1.41-1.8,2.45-2.38
			c1.04-0.58,2.25-0.87,3.6-0.87c1.84,0,3.36,0.45,4.56,1.34c1.2,0.9,1.99,2.01,2.36,3.35c0.38,1.34,0.56,3.42,0.56,6.25V211.49z"/>
		<path class="st0" d="M245.25,198.31v6.06h-3.71v24.22h-6.26v-24.22h-3.7v-6.06H245.25z"/>
		<path class="st0" d="M252.93,198.31v30.28h-6.26v-30.28H252.93z"/>
		<path class="st0" d="M269.74,216.03c0,3.04-0.06,5.2-0.17,6.46c-0.11,1.27-0.47,2.42-1.07,3.47c-0.6,1.05-1.41,1.85-2.43,2.41
			c-1.02,0.56-2.21,0.84-3.57,0.84c-1.29,0-2.44-0.27-3.47-0.8c-1.02-0.53-1.85-1.32-2.47-2.38s-0.99-2.21-1.11-3.46
			c-0.12-1.25-0.18-3.43-0.18-6.54v-5.18c0-3.04,0.06-5.2,0.17-6.46c0.11-1.27,0.47-2.42,1.07-3.47c0.6-1.05,1.41-1.85,2.43-2.41
			c1.02-0.56,2.21-0.84,3.57-0.84c1.29,0,2.44,0.27,3.47,0.79c1.02,0.53,1.85,1.33,2.47,2.38s1,2.21,1.12,3.46
			c0.12,1.25,0.18,3.43,0.18,6.54V216.03z M263.48,206.09c0-1.41-0.06-2.31-0.18-2.7c-0.12-0.39-0.38-0.59-0.77-0.59
			c-0.33,0-0.58,0.16-0.75,0.48c-0.17,0.32-0.26,1.26-0.26,2.81v14.14c0,1.76,0.06,2.84,0.17,3.25c0.11,0.41,0.38,0.62,0.79,0.62
			c0.43,0,0.7-0.24,0.82-0.71c0.12-0.47,0.18-1.6,0.18-3.38V206.09z"/>
		<path class="st0" d="M286.04,198.31v30.28h-5.48l-3.25-13.76v13.76h-5.23v-30.28h5.23l3.51,13.63v-13.63H286.04z"/>
	</g>
</g>
</svg>
