<?xml version="1.0" encoding="utf-8"?>
<!-- Generator: Adobe Illustrator 26.0.2, SVG Export Plug-In . SVG Version: 6.00 Build 0)  -->
<svg version="1.1" id="Layer_1" xmlns="http://www.w3.org/2000/svg" xmlns:xlink="http://www.w3.org/1999/xlink" x="0px" y="0px"
	 viewBox="0 0 300 300" style="enable-background:new 0 0 300 300;" xml:space="preserve">
<style type="text/css">
	.st0{display:none;fill:#2E3192;stroke:#FFFFFF;stroke-miterlimit:10;}
	.st1{fill:#FFFFFF;}
	.st2{display:none;fill:#FFFFFF;}
	.st3{display:none;}
	.st4{display:inline;}
	.st5{fill:none;stroke:#FFFFFF;stroke-width:3;stroke-miterlimit:10;}
	.st6{display:inline;fill:#FFFFFF;}
</style>
<g>
	<rect x="-192.33" y="-70.96" class="st0" width="735.77" height="488.91"/>
	<g>
		<g>
			<polygon class="st1" points="174.18,276.01 72.34,276.01 72.34,179.77 0,179.16 184.16,28.47 257.03,88.09 244.41,106.02 
				184.16,56.73 61.41,157.17 93.22,157.44 93.22,253.5 174.18,253.5 			"/>
			<path class="st1" d="M263.93,120.51l-45.98-13.06c6.62-5.2,14.8-11.55,23.4-18.21c0.08-0.06,0.17-0.14,0.26-0.2
				c7.26-5.6,14.81-11.43,21.98-16.94v47.92L263.93,120.51z"/>
		</g>
		<path class="st2" d="M157.85,176.51c-0.08,0.06-0.17,0.14-0.26,0.2"/>
		<path class="st2" d="M157.85,176.51c-0.08,0.06-0.17,0.14-0.26,0.2"/>
		<path class="st2" d="M157.85,176.51c-0.08,0.06-0.17,0.14-0.26,0.2L157.85,176.51z"/>
		<g class="st3">
			<g class="st4">
				<path class="st5" d="M265.88,174.82h-21.35V151.8h21.35V174.82z"/>
			</g>
			<g class="st4">
				<path class="st5" d="M293.84,174.82h-21.35V151.8h21.35V174.82z"/>
			</g>
		</g>
		<g class="st3">
			<g class="st4">
				<path class="st5" d="M265.88,203.03h-21.35v-23.02h21.35V203.03z"/>
			</g>
			<g class="st4">
				<path class="st5" d="M293.84,203.03h-21.35v-23.02h21.35V203.03z"/>
			</g>
		</g>
	</g>
	<g class="st3">
		<path class="st6" d="M150.02,114.81V170h-16.07v-29.59c0-4.27-0.12-6.84-0.36-7.7c-0.24-0.86-0.9-1.52-1.97-1.96
			c-1.08-0.44-3.47-0.67-7.18-0.67h-1.59v-6.43c7.77-1.43,13.67-4.38,17.7-8.84H150.02z"/>
		<path class="st6" d="M190.91,160.6V170h-35.36l0.01-7.87c10.47-14.68,16.7-23.77,18.68-27.26c1.98-3.49,2.96-6.21,2.96-8.16
			c0-1.5-0.3-2.62-0.9-3.36c-0.6-0.74-1.51-1.11-2.73-1.11c-1.22,0-2.13,0.41-2.73,1.23c-0.6,0.82-0.9,2.44-0.9,4.87v5.25h-14.4
			v-2.01c0-3.09,0.19-5.53,0.56-7.31c0.37-1.78,1.29-3.54,2.75-5.27c1.46-1.73,3.36-3.03,5.69-3.92c2.33-0.89,5.13-1.33,8.4-1.33
			c6.39,0,11.22,1.36,14.5,4.07c3.28,2.72,4.92,6.15,4.92,10.31c0,3.16-0.92,6.5-2.77,10.02s-7.27,11-16.29,22.43H190.91z"/>
		<path class="st6" d="M213.48,113.76v5.05h-4.55V139h-7.66v-20.19h-4.53v-5.05H213.48z"/>
		<path class="st6" d="M232.83,113.76V139h-7.66v-10.6h-2.29V139h-7.66v-25.24h7.66v9.03h2.29v-9.03H232.83z"/>
		<path class="st6" d="M149.13,185.67h-7.03v-2.37c0-1.11-0.09-1.81-0.27-2.12c-0.18-0.3-0.48-0.45-0.9-0.45
			c-0.45,0-0.8,0.2-1.03,0.61c-0.23,0.41-0.35,1.03-0.35,1.86c0,1.07,0.13,1.87,0.39,2.41c0.25,0.54,0.96,1.19,2.14,1.96
			c3.37,2.2,5.49,4,6.36,5.41c0.88,1.41,1.31,3.68,1.31,6.82c0,2.28-0.24,3.96-0.73,5.04c-0.49,1.08-1.42,1.99-2.81,2.72
			c-1.39,0.73-3.01,1.1-4.85,1.1c-2.02,0-3.75-0.42-5.18-1.27c-1.43-0.84-2.37-1.92-2.81-3.22c-0.44-1.31-0.67-3.16-0.67-5.56v-2.1
			h7.03v3.9c0,1.2,0.1,1.97,0.3,2.31c0.2,0.34,0.55,0.51,1.05,0.51s0.88-0.22,1.12-0.65c0.25-0.44,0.37-1.08,0.37-1.94
			c0-1.89-0.23-3.12-0.7-3.7c-0.48-0.58-1.66-1.55-3.54-2.91c-1.88-1.37-3.13-2.37-3.74-2.99c-0.61-0.62-1.12-1.48-1.52-2.57
			c-0.4-1.09-0.6-2.49-0.6-4.19c0-2.45,0.28-4.24,0.85-5.38c0.57-1.13,1.49-2.02,2.76-2.66c1.27-0.64,2.8-0.96,4.6-0.96
			c1.97,0,3.64,0.35,5.02,1.05c1.38,0.7,2.3,1.58,2.75,2.64c0.45,1.06,0.67,2.86,0.67,5.41V185.67z"/>
		<path class="st6" d="M167.37,175.98v6.41h-4.49v25.61h-7.57v-25.61h-4.47v-6.41H167.37z"/>
		<path class="st6" d="M169.1,175.98h5.36c3.57,0,5.99,0.15,7.25,0.45s2.29,1.08,3.09,2.32c0.8,1.25,1.2,3.23,1.2,5.96
			c0,2.49-0.28,4.17-0.85,5.02c-0.56,0.86-1.67,1.37-3.32,1.54c1.5,0.41,2.5,0.96,3.02,1.64c0.51,0.69,0.84,1.32,0.96,1.89
			c0.13,0.57,0.19,2.15,0.19,4.74v8.44h-7.03v-10.64c0-1.71-0.12-2.78-0.37-3.18c-0.25-0.41-0.89-0.61-1.93-0.61v14.44h-7.56V175.98
			z M176.66,181.46v7.12c0.85,0,1.45-0.13,1.79-0.39c0.34-0.26,0.51-1.09,0.51-2.5v-1.76c0-1.02-0.16-1.68-0.49-2
			C178.14,181.61,177.54,181.46,176.66,181.46z"/>
		<path class="st6" d="M188.92,175.98h12.62v6.41h-5.05v6.07h4.73v6.09h-4.73v7.04h5.55v6.41h-13.12V175.98z"/>
		<path class="st6" d="M204.21,175.98h12.62v6.41h-5.05v6.07h4.73v6.09h-4.73v7.04h5.55v6.41h-13.12V175.98z"/>
		<path class="st6" d="M234.26,175.98v6.41h-4.49v25.61h-7.57v-25.61h-4.47v-6.41H234.26z"/>
		<path class="st6" d="M115.59,231.17h-6.38v-5.79c0-1.68-0.07-2.73-0.2-3.15c-0.14-0.42-0.44-0.63-0.9-0.63
			c-0.52,0-0.86,0.25-1,0.76c-0.14,0.51-0.21,1.6-0.21,3.29v15.47c0,1.62,0.07,2.67,0.21,3.17c0.14,0.49,0.46,0.74,0.96,0.74
			c0.47,0,0.79-0.25,0.93-0.74c0.15-0.49,0.22-1.66,0.22-3.48v-4.19h6.38v1.3c0,3.45-0.18,5.89-0.54,7.33
			c-0.36,1.44-1.15,2.71-2.38,3.79c-1.23,1.08-2.74,1.63-4.54,1.63c-1.87,0-3.41-0.46-4.62-1.38s-2.02-2.19-2.41-3.82
			c-0.39-1.62-0.59-4.07-0.59-7.33v-9.73c0-2.4,0.06-4.2,0.18-5.4c0.12-1.2,0.48-2.35,1.08-3.47c0.6-1.11,1.44-1.98,2.5-2.62
			c1.07-0.64,2.29-0.96,3.68-0.96c1.88,0,3.43,0.49,4.66,1.48c1.22,0.99,2.03,2.22,2.41,3.69c0.39,1.47,0.58,3.76,0.58,6.87V231.17z
			"/>
		<path class="st6" d="M132.47,236.17c0,3.35-0.06,5.72-0.17,7.11c-0.12,1.39-0.48,2.66-1.09,3.82c-0.61,1.15-1.44,2.04-2.48,2.65
			c-1.04,0.62-2.25,0.93-3.64,0.93c-1.31,0-2.49-0.29-3.54-0.87c-1.05-0.58-1.89-1.46-2.53-2.62c-0.64-1.17-1.02-2.43-1.14-3.81
			c-0.12-1.37-0.18-3.77-0.18-7.2v-5.7c0-3.35,0.06-5.72,0.17-7.11c0.12-1.39,0.48-2.66,1.09-3.82c0.61-1.15,1.44-2.04,2.48-2.65
			c1.04-0.62,2.25-0.93,3.64-0.93c1.31,0,2.49,0.29,3.54,0.87c1.05,0.58,1.89,1.46,2.52,2.62c0.64,1.17,1.02,2.43,1.14,3.81
			c0.12,1.37,0.18,3.77,0.18,7.2V236.17z M126.09,225.23c0-1.55-0.06-2.54-0.19-2.97c-0.13-0.43-0.39-0.65-0.78-0.65
			c-0.33,0-0.59,0.17-0.76,0.53c-0.18,0.35-0.27,1.38-0.27,3.1v15.55c0,1.93,0.06,3.13,0.18,3.58c0.12,0.45,0.39,0.68,0.81,0.68
			c0.43,0,0.71-0.26,0.83-0.78s0.18-1.76,0.18-3.72V225.23z"/>
		<path class="st6" d="M149.11,216.67v33.3h-5.59l-3.32-15.14v15.14h-5.34v-33.3h5.34l3.58,15v-15H149.11z"/>
		<path class="st6" d="M165.19,226.75h-5.93v-2.47c0-1.15-0.08-1.89-0.23-2.2c-0.15-0.32-0.4-0.47-0.76-0.47
			c-0.39,0-0.68,0.21-0.87,0.64c-0.2,0.43-0.3,1.07-0.3,1.93c0,1.11,0.11,1.95,0.33,2.51c0.21,0.56,0.81,1.24,1.8,2.04
			c2.84,2.29,4.63,4.17,5.37,5.63c0.74,1.47,1.11,3.83,1.11,7.1c0,2.37-0.2,4.12-0.61,5.25c-0.41,1.12-1.2,2.07-2.37,2.83
			c-1.17,0.76-2.54,1.14-4.09,1.14c-1.71,0-3.17-0.44-4.37-1.32c-1.21-0.88-2-2-2.37-3.35c-0.37-1.36-0.56-3.28-0.56-5.78v-2.18
			h5.93v4.05c0,1.25,0.08,2.05,0.25,2.41c0.17,0.36,0.46,0.53,0.89,0.53s0.74-0.23,0.95-0.68c0.21-0.45,0.31-1.12,0.31-2.02
			c0-1.96-0.2-3.24-0.59-3.85c-0.4-0.6-1.4-1.61-2.99-3.02c-1.59-1.43-2.64-2.46-3.15-3.11c-0.52-0.64-0.94-1.54-1.28-2.67
			c-0.34-1.14-0.51-2.59-0.51-4.36c0-2.55,0.24-4.42,0.72-5.6c0.48-1.18,1.26-2.1,2.33-2.77c1.07-0.66,2.37-1,3.88-1
			c1.66,0,3.07,0.36,4.24,1.09c1.17,0.73,1.94,1.64,2.32,2.75c0.38,1.1,0.57,2.98,0.57,5.63V226.75z"/>
		<path class="st6" d="M180.59,216.67v6.67h-3.79v26.64h-6.38v-26.64h-3.78v-6.67H180.59z"/>
		<path class="st6" d="M182.04,216.67h4.52c3.01,0,5.05,0.16,6.12,0.47c1.07,0.32,1.94,1.12,2.61,2.42c0.67,1.3,1.01,3.36,1.01,6.2
			c0,2.59-0.24,4.33-0.71,5.23c-0.48,0.89-1.41,1.43-2.81,1.6c1.26,0.42,2.11,0.99,2.55,1.71c0.44,0.71,0.71,1.37,0.81,1.96
			c0.11,0.6,0.16,2.24,0.16,4.93v8.78h-5.93v-11.07c0-1.78-0.1-2.89-0.31-3.31c-0.21-0.42-0.75-0.64-1.63-0.64v15.02h-6.38V216.67z
			 M188.43,222.37v7.41c0.72,0,1.22-0.13,1.51-0.4c0.29-0.27,0.43-1.14,0.43-2.6v-1.83c0-1.06-0.14-1.75-0.42-2.08
			C189.67,222.53,189.16,222.37,188.43,222.37z"/>
		<path class="st6" d="M213.28,216.67v22.26c0,2.52-0.06,4.3-0.18,5.32c-0.12,1.02-0.48,2.07-1.08,3.15
			c-0.6,1.08-1.38,1.89-2.36,2.45c-0.98,0.56-2.13,0.83-3.45,0.83c-1.46,0-2.76-0.33-3.88-0.99c-1.12-0.66-1.96-1.52-2.52-2.57
			c-0.56-1.06-0.88-2.17-0.98-3.34c-0.1-1.17-0.15-3.64-0.15-7.4v-19.71h6.38v24.97c0,1.45,0.06,2.38,0.18,2.79
			c0.12,0.4,0.35,0.61,0.7,0.61c0.4,0,0.66-0.22,0.78-0.67c0.12-0.45,0.17-1.5,0.17-3.16v-24.54H213.28z"/>
		<path class="st6" d="M230.65,231.17h-6.38v-5.79c0-1.68-0.07-2.73-0.2-3.15c-0.14-0.42-0.44-0.63-0.9-0.63
			c-0.52,0-0.86,0.25-1,0.76c-0.14,0.51-0.21,1.6-0.21,3.29v15.47c0,1.62,0.07,2.67,0.21,3.17c0.14,0.49,0.46,0.74,0.96,0.74
			c0.47,0,0.79-0.25,0.93-0.74c0.15-0.49,0.22-1.66,0.22-3.48v-4.19h6.38v1.3c0,3.45-0.18,5.89-0.54,7.33
			c-0.36,1.44-1.15,2.71-2.38,3.79c-1.23,1.08-2.74,1.63-4.54,1.63c-1.87,0-3.41-0.46-4.62-1.38s-2.02-2.19-2.41-3.82
			c-0.39-1.62-0.59-4.07-0.59-7.33v-9.73c0-2.4,0.06-4.2,0.18-5.4c0.12-1.2,0.48-2.35,1.08-3.47c0.6-1.11,1.44-1.98,2.5-2.62
			c1.07-0.64,2.29-0.96,3.68-0.96c1.88,0,3.43,0.49,4.66,1.48c1.22,0.99,2.03,2.22,2.41,3.69c0.39,1.47,0.58,3.76,0.58,6.87V231.17z
			"/>
		<path class="st6" d="M245.8,216.67v6.67h-3.79v26.64h-6.38v-26.64h-3.78v-6.67H245.8z"/>
		<path class="st6" d="M253.64,216.67v33.3h-6.38v-33.3H253.64z"/>
		<path class="st6" d="M270.79,236.17c0,3.35-0.06,5.72-0.17,7.11c-0.12,1.39-0.48,2.66-1.09,3.82c-0.61,1.15-1.44,2.04-2.48,2.65
			c-1.04,0.62-2.25,0.93-3.64,0.93c-1.31,0-2.49-0.29-3.54-0.87c-1.05-0.58-1.89-1.46-2.53-2.62c-0.64-1.17-1.02-2.43-1.14-3.81
			s-0.18-3.77-0.18-7.2v-5.7c0-3.35,0.06-5.72,0.17-7.11c0.12-1.39,0.48-2.66,1.09-3.82s1.44-2.04,2.48-2.65
			c1.04-0.62,2.25-0.93,3.64-0.93c1.31,0,2.49,0.29,3.54,0.87c1.05,0.58,1.89,1.46,2.52,2.62c0.64,1.17,1.02,2.43,1.14,3.81
			c0.12,1.37,0.18,3.77,0.18,7.2V236.17z M264.41,225.23c0-1.55-0.06-2.54-0.19-2.97c-0.13-0.43-0.39-0.65-0.78-0.65
			c-0.33,0-0.59,0.17-0.76,0.53c-0.18,0.35-0.27,1.38-0.27,3.1v15.55c0,1.93,0.06,3.13,0.18,3.58c0.12,0.45,0.39,0.68,0.81,0.68
			c0.43,0,0.71-0.26,0.83-0.78s0.18-1.76,0.18-3.72V225.23z"/>
		<path class="st6" d="M287.43,216.67v33.3h-5.59l-3.32-15.14v15.14h-5.34v-33.3h5.34l3.58,15v-15H287.43z"/>
	</g>
</g>
</svg>
